<svg width="293" height="270" viewBox="0 0 293 270" fill="none" xmlns="http://www.w3.org/2000/svg">
<path d="M45.045 269.242H248.498C278.052 269.242 293 254.376 293 225.216V44.533C293 15.3724 278.052 0.506088 248.498 0.506088H45.045C15.6053 0.506088 0.657227 15.258 0.657227 44.533V225.216C0.657227 254.491 15.6053 269.242 45.045 269.242ZM43.4475 249.001C28.8418 249.001 20.8543 241.225 20.8543 226.13V89.7036C20.8543 74.4943 28.8418 66.8325 43.4475 66.8325H249.982C264.473 66.8325 272.689 74.4943 272.689 89.7036V226.13C272.689 241.225 264.473 249.001 249.982 249.001H43.4475Z" fill="#F7E8FF" fill-opacity="1"/>
<path d="M62.1288 159.454C62.1288 183.771 77.8973 199.781 101.031 199.781C113.177 199.781 123.512 194.662 134.331 184.158L148.312 170.683L162.245 184.158C173.112 194.662 183.423 199.781 195.545 199.781C218.703 199.781 234.447 183.771 234.447 159.454C234.447 135.113 218.703 119.079 195.545 119.079C183.423 119.079 173.112 124.223 162.245 134.727L148.312 148.202L134.331 134.727C123.512 124.223 113.177 119.079 101.031 119.079C77.8973 119.079 62.1288 135.113 62.1288 159.454ZM78.501 159.454C78.501 144.893 87.6288 135.452 101.031 135.452C108.517 135.452 115.205 139.146 122.836 146.366L136.721 159.454L122.836 172.519C115.181 179.738 108.492 183.409 101.031 183.409C87.6288 183.409 78.501 173.991 78.501 159.454ZM159.855 159.454L173.74 146.366C181.419 139.146 188.107 135.452 195.545 135.452C208.971 135.452 218.075 144.893 218.075 159.454C218.075 173.991 208.971 183.409 195.545 183.409C188.107 183.409 181.419 179.738 173.764 172.519L159.855 159.454Z" fill="#F7E8FF" fill-opacity="0.85"/>
</svg>
