<svg xmlns="http://www.w3.org/2000/svg" width="75" height="75" viewBox="0 0 75 75" fill="none">
<rect x="0.292358" y="0.887207" width="74" height="74" rx="9" fill="white" fill-opacity="0.04"/>
<path d="M53.7177 22.639C50.6544 21.2058 47.379 20.1641 43.9547 19.571C43.5341 20.3314 43.0428 21.354 42.7041 22.1676C39.0639 21.6201 35.4573 21.6201 31.8841 22.1676C31.5454 21.354 31.0429 20.3314 30.6186 19.571C27.1906 20.1641 23.9114 21.2096 20.8481 22.6466C14.6695 31.9833 12.9946 41.0881 13.8321 50.0636C17.9301 53.1239 21.9015 54.9829 25.8059 56.1994C26.7699 54.8726 27.6297 53.4623 28.3704 51.9758C26.9598 51.4398 25.6087 50.7783 24.332 50.0104C24.6707 49.7595 25.002 49.4972 25.3221 49.2273C33.1086 52.8692 41.5689 52.8692 49.2624 49.2273C49.5862 49.4972 49.9174 49.7595 50.2524 50.0104C48.972 50.7821 47.6172 51.4436 46.2066 51.9797C46.9472 53.4623 47.8033 54.8765 48.771 56.2032C52.6792 54.9867 56.6544 53.1277 60.7524 50.0636C61.735 39.6587 59.0737 30.6375 53.7177 22.639ZM29.4312 44.5438C27.0938 44.5438 25.1769 42.3616 25.1769 39.7043C25.1769 37.047 27.0528 34.8611 29.4312 34.8611C31.8096 34.8611 33.7265 37.0432 33.6855 39.7043C33.6892 42.3616 31.8096 44.5438 29.4312 44.5438ZM45.1532 44.5438C42.8158 44.5438 40.8989 42.3616 40.8989 39.7043C40.8989 37.047 42.7748 34.8611 45.1532 34.8611C47.5316 34.8611 49.4485 37.0432 49.4075 39.7043C49.4075 42.3616 47.5316 44.5438 45.1532 44.5438Z" fill="white"/>
<rect x="0.792358" y="1.38721" width="73" height="73" rx="8.5" stroke="#A9A9A9" stroke-opacity="0.22"/>
</svg>